<svg width="28" height="28" viewBox="0 0 28 28" fill="none" xmlns="http://www.w3.org/2000/svg">
<path d="M9.71548 12.8382L13.9063 17.2125L26.189 4.9425" stroke="#00A2E5" stroke-width="3" stroke-linecap="round"/>
<path d="M26.1866 13.7233C26.1621 12.8953 25.4708 12.2439 24.6428 12.2685C23.8147 12.2931 23.1634 12.9843 23.188 13.8124L26.1866 13.7233ZM18.4874 6.12627C19.2128 6.52631 20.1252 6.26252 20.5252 5.53708C20.9253 4.81164 20.6615 3.89926 19.936 3.49923L18.4874 6.12627ZM23.083 15.4882C22.3133 20.4525 17.665 23.8528 12.7007 23.0831L12.241 26.0477C18.8426 27.0713 25.024 22.5494 26.0476 15.9479L23.083 15.4882ZM12.7007 23.0831C7.73641 22.3134 4.33606 17.665 5.10579 12.7007L2.14122 12.2411C1.11761 18.8426 5.63945 25.0241 12.241 26.0477L12.7007 23.0831ZM5.10579 12.7007C5.87553 7.73647 10.5239 4.33612 15.4881 5.10585L15.9478 2.14128C9.34625 1.11767 3.16482 5.63951 2.14122 12.2411L5.10579 12.7007ZM23.188 13.8124C23.2043 14.3623 23.1707 14.9225 23.083 15.4882L26.0476 15.9479C26.1636 15.1999 26.2084 14.4559 26.1866 13.7233L23.188 13.8124ZM15.4881 5.10585C16.574 5.27422 17.582 5.62702 18.4874 6.12627L19.936 3.49923C18.7278 2.83295 17.3856 2.36421 15.9478 2.14128L15.4881 5.10585Z" fill="#C1CCDA"/>
</svg>
