<svg width="26" height="23" viewBox="0 0 26 23" fill="none" xmlns="http://www.w3.org/2000/svg">
<path d="M25.125 20.6V20.475H25H1H0.875V20.6V22V22.125H1H25H25.125V22V20.6ZM18.0662 19.2V12.325H20.6397V19.2V19.325H20.7647H22.1765H22.3015V19.2V10.8V10.675H22.1765H16.5294H16.4044V10.8V19.2V19.325H16.5294H17.9412H18.0662V19.2ZM11.0074 19.2V8.125H13.5809V19.2V19.325H13.7059H15.1176H15.2426V19.2V6.6V6.475H15.1176H9.47059H9.34559V6.6V19.2V19.325H9.47059H10.8824H11.0074V19.2ZM3.94853 19.2V2.525H6.52206V19.2V19.325H6.64706H8.05882H8.18382V19.2V1V0.875H8.05882H2.41176H2.28676V1V19.2V19.325H2.41176H3.82353H3.94853V19.2Z" fill="#8492A4" stroke="#C1CCDA" stroke-width="0.25"/>
</svg>
